<?xml version="1.0" encoding="UTF-8" standalone="no"?>
<!-- Created with Inkscape (http://www.inkscape.org/) -->

<svg
   version="1.1"
   id="svg1"
   width="378.48892"
   height="378.48892"
   viewBox="0 0 378.48892 378.48892"
   xmlns="http://www.w3.org/2000/svg"
   xmlns:svg="http://www.w3.org/2000/svg">
  <defs
     id="defs1" />
  <g
     id="g1"
     transform="translate(0.00179193,0.00313193)">
    <path
       id="path1"
       d="M 141.7341,0 C 141.7341,78.27858 78.27858,141.7341 0,141.7341 -78.27858,141.7341 -141.7341,78.27858 -141.7341,0 c 0,-78.27858 63.45552,-141.7341 141.7341,-141.7341 78.27858,0 141.7341,63.45552 141.7341,141.7341 z"
       style="fill:none;stroke:#000000;stroke-width:0.3985;stroke-linecap:butt;stroke-linejoin:miter;stroke-miterlimit:10;stroke-dasharray:none;stroke-opacity:1"
       transform="matrix(1.3333333,0,0,-1.3333333,189.24267,189.24133)" />
    <path
       id="path2"
       d="m 42.5202,0 c 0,15.6557 -12.6911,28.3468 -28.34681,28.3468 C -1.4823,28.3468 -14.1734,15.6557 -14.1734,0 c 0,-15.6557 12.6911,-28.3468 28.34679,-28.3468 15.65571,0 28.34681,12.6911 28.34681,28.3468 z"
       style="fill:none;stroke:#000000;stroke-width:0.3985;stroke-linecap:butt;stroke-linejoin:miter;stroke-miterlimit:10;stroke-dasharray:none;stroke-opacity:1"
       transform="matrix(1.3333333,0,0,-1.3333333,189.24267,189.24133)" />
    <path
       id="path3"
       d="M 49.32362,0 C 49.32362,27.24103 27.24103,49.32362 0,49.32362 -27.24103,49.32362 -49.32362,27.24103 -49.32362,0 c 0,-27.24103 22.08259,-49.32362 49.32362,-49.32362 27.24103,0 49.32362,22.08259 49.32362,49.32362 z M 42.5202,0 c 0,15.6557 -12.6911,28.3468 -28.34681,28.3468 C -1.4823,28.3468 -14.1734,15.6557 -14.1734,0 c 0,-15.6557 12.6911,-28.3468 28.34679,-28.3468 15.65571,0 28.34681,12.6911 28.34681,28.3468 z"
       style="fill:#d9d9d9;fill-opacity:1;fill-rule:evenodd;stroke:none"
       transform="matrix(1.3333333,0,0,-1.3333333,189.24267,189.24133)" />
    <path
       id="path4"
       d="M 1.7821562,-1.1475 C 1.3837187,-0.47953125 0.997,-0.33890625 0.56340625,-0.30375 c -0.12890625,0 -0.2109375,0 -0.2109375,0.19921875 0,0.05859375 0.046875,0.10546875 0.12890625,0.10546875 0.26953125,0 0.5742187,-0.03515625 0.8554687,-0.03515625 0.328125,0 0.6796875,0.03515625 0.9960938,0.03515625 0.058594,0 0.1875,0 0.1875,-0.1875 0,-0.1171875 -0.09375,-0.1171875 -0.1640625,-0.1171875 -0.2226563,-0.0234375 -0.4570313,-0.10546875 -0.4570313,-0.3515625 0,-0.1171875 0.058594,-0.234375 0.1289063,-0.375 l 0.7617187,-1.265625 h 2.4960938 c 0.023437,0.1992188 0.1640625,1.55859375 0.1640625,1.6640625 0,0.29296875 -0.515625,0.328125 -0.7148438,0.328125 -0.140625,0 -0.2460937,0 -0.2460937,0.19921875 0,0.10546875 0.1289062,0.10546875 0.140625,0.10546875 0.4101562,0 0.84375,-0.03515625 1.2539062,-0.03515625 0.2460938,0 0.8671875,0.03515625 1.125,0.03515625 0.058594,0 0.1757813,0 0.1757813,-0.19921875 C 7.1845,-0.30375 7.0790312,-0.30375 6.950125,-0.30375 6.34075,-0.30375 6.34075,-0.3740625 6.3055937,-0.66703125 L 5.6962187,-6.8896875 C 5.6845,-7.0889062 5.6845,-7.1357812 5.5087187,-7.1357812 5.3446562,-7.1357812 5.3095,-7.0654687 5.2509062,-6.96 Z m 1.1953125,-1.4648437 1.96875,-3.28125 0.3164063,3.28125 z m 0,0"
       style="fill:#000000;fill-opacity:1;fill-rule:nonzero;stroke:none"
       aria-label="A"
       transform="matrix(1.3333333,0,0,1.3333333,108.67067,193.78)" />
    <g
       id="g4"
       aria-label="A\B"
       transform="matrix(1.3333333,0,0,1.3333333,131.04133,192.56267)">
      <path
         id="path5"
         d="m 1.7824766,-1.1485625 c -0.3984375,0.66796875 -0.78515629,0.80859375 -1.21875004,0.84375 -0.12890625,0 -0.2109375,0 -0.2109375,0.19921875 0,0.05859375 0.046875,0.10546875 0.12890625,0.10546875 0.26953125,0 0.57421879,-0.03515625 0.85546879,-0.03515625 0.328125,0 0.6796875,0.03515625 0.9960937,0.03515625 0.058594,0 0.1875,0 0.1875,-0.1875 0,-0.1171875 -0.09375,-0.1171875 -0.1640625,-0.1171875 C 2.1340391,-0.32825 1.8996641,-0.41028125 1.8996641,-0.656375 c 0,-0.1171875 0.058594,-0.234375 0.1289062,-0.375 L 2.7902891,-2.297 h 2.4960937 c 0.023437,0.1992188 0.1640625,1.55859375 0.1640625,1.6640625 0,0.29296875 -0.515625,0.328125 -0.7148437,0.328125 -0.140625,0 -0.2460938,0 -0.2460938,0.19921875 0,0.10546875 0.1289063,0.10546875 0.140625,0.10546875 0.4101563,0 0.84375,-0.03515625 1.2539063,-0.03515625 0.2460937,0 0.8671875,0.03515625 1.125,0.03515625 0.058594,0 0.1757812,0 0.1757812,-0.19921875 0,-0.10546875 -0.1054687,-0.10546875 -0.234375,-0.10546875 -0.609375,0 -0.609375,-0.0703125 -0.6445312,-0.36328125 L 5.6965391,-6.89075 c -0.011719,-0.1992187 -0.011719,-0.2460937 -0.1875,-0.2460937 -0.1640625,0 -0.1992188,0.070312 -0.2578125,0.1757812 z m 1.1953125,-1.4648437 1.96875,-3.28125 0.3164062,3.28125 z m 0,0"
         style="fill:#000000;fill-opacity:1;fill-rule:nonzero;stroke:none" />
      <path
         id="path6"
         d="m 13.679937,2.249875 c 0.04687,0.140625 0.09375,0.2460938 0.222657,0.2460938 0.117187,0 0.199218,-0.09375 0.199218,-0.1992188 0,-0.023437 0,-0.046875 -0.04687,-0.1640625 l -3.410156,-9.3632812 c -0.05859,-0.1757813 -0.08203,-0.2460938 -0.210937,-0.2460938 -0.117188,0 -0.199219,0.09375 -0.199219,0.1992188 0,0.023437 0,0.046875 0.04687,0.1640625 z m 0,0"
         style="fill:#000000;fill-opacity:1;fill-rule:nonzero;stroke:none" />
      <path
         id="path7"
         d="m 18.469977,-0.7735625 c -0.09375,0.38671875 -0.117188,0.46875 -0.902344,0.46875 -0.175781,0 -0.269531,0 -0.269531,0.19921875 0,0.10546875 0.08203,0.10546875 0.269531,0.10546875 h 3.550781 c 1.570313,0 2.753906,-1.171875 2.753906,-2.15625 0,-0.7148437 -0.585937,-1.2890625 -1.546875,-1.3945312 1.03125,-0.1992188 2.085938,-0.9375 2.085938,-1.875 0,-0.7382813 -0.65625,-1.3828125 -1.851563,-1.3828125 h -3.351562 c -0.1875,0 -0.292969,0 -0.292969,0.1992187 0,0.1171875 0.09375,0.1171875 0.28125,0.1171875 0.02344,0 0.210938,0 0.375,0.011719 0.1875,0.023437 0.269531,0.035156 0.269531,0.1640625 0,0.035156 -0.01172,0.070312 -0.03516,0.1875 z m 1.5,-2.8710937 0.621093,-2.4726563 c 0.09375,-0.3515625 0.105469,-0.375 0.539063,-0.375 h 1.289062 c 0.867188,0 1.078125,0.5859375 1.078125,1.0195313 0,0.8789062 -0.855468,1.828125 -2.074218,1.828125 z m -0.445313,3.3398437 c -0.140625,0 -0.152344,0 -0.222656,-0.0117188 C 19.208258,-0.32825 19.173102,-0.3399687 19.173102,-0.422 c 0,-0.0234375 0,-0.046875 0.05859,-0.22265625 L 19.911383,-3.422 h 1.886719 c 0.960937,0 1.148437,0.7265625 1.148437,1.1601563 0,0.984375 -0.890625,1.9570312 -2.0625,1.9570312 z m 0,0"
         style="fill:#000000;fill-opacity:1;fill-rule:nonzero;stroke:none" />
    </g>
    <path
       id="path8"
       d="m 1.5948984,-0.7725 c -0.09375,0.38671875 -0.1171875,0.46875 -0.90234371,0.46875 -0.17578125,0 -0.26953125,0 -0.26953125,0.19921875 0,0.10546875 0.0820313,0.10546875 0.26953125,0.10546875 H 4.2433359 c 1.5703125,0 2.7539063,-1.171875 2.7539063,-2.15625 0,-0.7148437 -0.5859375,-1.2890625 -1.546875,-1.3945312 1.03125,-0.1992188 2.0859375,-0.9375 2.0859375,-1.875 0,-0.7382813 -0.65625,-1.3828125 -1.8515625,-1.3828125 H 2.3331797 c -0.1875,0 -0.2929688,0 -0.2929688,0.1992187 0,0.1171875 0.09375,0.1171875 0.28125,0.1171875 0.023437,0 0.2109375,0 0.375,0.011719 0.1875,0.023437 0.2695313,0.035156 0.2695313,0.1640625 0,0.035156 -0.011719,0.070312 -0.035156,0.1875 z m 1.5,-2.8710937 0.6210938,-2.4726563 c 0.09375,-0.3515625 0.1054687,-0.375 0.5390625,-0.375 h 1.2890625 c 0.8671875,0 1.078125,0.5859375 1.078125,1.0195313 0,0.8789062 -0.8554688,1.828125 -2.0742188,1.828125 z M 2.6495859,-0.30375 c -0.140625,0 -0.1523437,0 -0.2226562,-0.0117188 -0.09375,-0.0117188 -0.1289063,-0.0234375 -0.1289063,-0.10546875 0,-0.0234375 0,-0.046875 0.058594,-0.22265625 l 0.6796873,-2.7773437 h 1.8867187 c 0.9609375,0 1.1484375,0.7265625 1.1484375,1.1601563 0,0.984375 -0.890625,1.9570312 -2.0625,1.9570312 z m 0,0"
       style="fill:#000000;fill-opacity:1;fill-rule:nonzero;stroke:none"
       aria-label="B"
       transform="matrix(1.3333333,0,0,1.3333333,202.768,193.78)" />
  </g>
</svg>
