<?xml version="1.0" encoding="UTF-8" standalone="no"?>
<!-- Created with Inkscape (http://www.inkscape.org/) -->

<svg
   version="1.1"
   id="svg1"
   width="151.40668"
   height="132.81467"
   viewBox="0 0 151.40668 132.81467"
   xmlns="http://www.w3.org/2000/svg"
   xmlns:svg="http://www.w3.org/2000/svg">
  <defs
     id="defs1" />
  <g
     id="g1">
    <path
       id="path1"
       d="M 49.60692,0 C 49.60692,27.39749 27.39749,49.60692 0,49.60692 -27.39749,49.60692 -49.60692,27.39749 -49.60692,0 c 0,-27.39749 22.20943,-49.60692 49.60692,-49.60692 27.39749,0 49.60692,22.20943 49.60692,49.60692 z"
       style="fill:none;stroke:#000000;stroke-width:0.3985;stroke-linecap:butt;stroke-linejoin:miter;stroke-miterlimit:10;stroke-dasharray:none;stroke-opacity:1"
       transform="matrix(1.3333333,0,0,-1.3333333,84.998667,66.406667)" />
    <path
       id="path2"
       d="m 42.5202,0 c 0,15.6557 -12.6911,28.3468 -28.34681,28.3468 C -1.4823,28.3468 -14.1734,15.6557 -14.1734,0 c 0,-15.6557 12.6911,-28.3468 28.34679,-28.3468 15.65571,0 28.34681,12.6911 28.34681,28.3468 z"
       style="fill:none;stroke:#000000;stroke-width:0.3985;stroke-linecap:butt;stroke-linejoin:miter;stroke-miterlimit:10;stroke-dasharray:none;stroke-opacity:1"
       transform="matrix(1.3333333,0,0,-1.3333333,84.998667,66.406667)" />
    <path
       id="path3"
       d="M 49.32362,0 C 49.32362,27.24103 27.24103,49.32362 0,49.32362 -27.24103,49.32362 -49.32362,27.24103 -49.32362,0 c 0,-27.24103 22.08259,-49.32362 49.32362,-49.32362 27.24103,0 49.32362,22.08259 49.32362,49.32362 z M 42.5202,0 c 0,15.6557 -12.6911,28.3468 -28.34681,28.3468 C -1.4823,28.3468 -14.1734,15.6557 -14.1734,0 c 0,-15.6557 12.6911,-28.3468 28.34679,-28.3468 15.65571,0 28.34681,12.6911 28.34681,28.3468 z"
       style="fill:#d9d9d9;fill-opacity:1;fill-rule:evenodd;stroke:none"
       transform="matrix(1.3333333,0,0,-1.3333333,84.998667,66.406667)" />
    <path
       id="path4"
       d="m 1.7825156,-1.1484531 c -0.3984375,0.66796873 -0.78515622,0.80859373 -1.21874997,0.84374998 -0.12890625,0 -0.2109375,0 -0.2109375,0.19921875 0,0.05859375 0.046875,0.105468745 0.12890625,0.105468745 0.26953125,0 0.57421872,-0.035156245 0.85546872,-0.035156245 0.328125,0 0.6796875,0.035156245 0.9960938,0.035156245 0.058594,0 0.1875,0 0.1875,-0.187499995 0,-0.1171875 -0.09375,-0.1171875 -0.1640625,-0.1171875 -0.2226563,-0.0234375 -0.4570313,-0.10546875 -0.4570313,-0.3515625 0,-0.1171875 0.058594,-0.234375 0.1289063,-0.37499998 l 0.7617187,-1.265625 h 2.4960938 c 0.023437,0.1992187 0.1640625,1.55859373 0.1640625,1.66406248 0,0.29296875 -0.515625,0.328125 -0.7148438,0.328125 -0.140625,0 -0.2460937,0 -0.2460937,0.19921875 0,0.105468745 0.1289062,0.105468745 0.140625,0.105468745 0.4101562,0 0.84375,-0.035156245 1.2539062,-0.035156245 0.2460938,0 0.8671875,0.035156245 1.125,0.035156245 0.058594,0 0.1757813,0 0.1757813,-0.199218745 0,-0.10546875 -0.1054688,-0.10546875 -0.234375,-0.10546875 -0.609375,0 -0.609375,-0.0703125 -0.6445313,-0.36328125 L 5.6965781,-6.8906406 c -0.011719,-0.1992188 -0.011719,-0.2460938 -0.1875,-0.2460938 -0.1640625,0 -0.1992187,0.070312 -0.2578125,0.1757813 z m 1.1953125,-1.4648438 1.96875,-3.28125 0.3164063,3.28125 z m 0,0"
       style="fill:#000000;fill-opacity:1;fill-rule:nonzero;stroke:none"
       aria-label="A"
       transform="matrix(1.3333333,0,0,1.3333333,4.428,70.945333)" />
    <g
       id="g4"
       aria-label="A\B"
       transform="matrix(1.3333333,0,0,1.3333333,26.798667,69.728)">
      <path
         id="path5"
         d="m 1.7799062,-1.1495156 c -0.3984375,0.66796873 -0.7851562,0.80859373 -1.21874995,0.84374998 -0.12890625,0 -0.2109375,0 -0.2109375,0.19921875 0,0.05859375 0.046875,0.10546875 0.12890625,0.10546875 0.26953125,0 0.5742187,-0.03515625 0.8554687,-0.03515625 0.328125,0 0.6796875,0.03515625 0.9960938,0.03515625 0.058594,0 0.1875,0 0.1875,-0.1875 0,-0.1171875 -0.09375,-0.1171875 -0.1640625,-0.1171875 -0.2226563,-0.0234375 -0.4570313,-0.10546875 -0.4570313,-0.3515625 0,-0.1171875 0.058594,-0.234375 0.1289063,-0.37499998 l 0.7617187,-1.265625 h 2.4960938 c 0.023437,0.1992187 0.1640625,1.55859373 0.1640625,1.66406248 0,0.29296875 -0.515625,0.328125 -0.7148438,0.328125 -0.140625,0 -0.2460937,0 -0.2460937,0.19921875 0,0.10546875 0.1289062,0.10546875 0.140625,0.10546875 0.4101562,0 0.84375,-0.03515625 1.2539062,-0.03515625 0.2460938,0 0.8671875,0.03515625 1.125,0.03515625 0.058594,0 0.1757813,0 0.1757813,-0.19921875 0,-0.10546875 -0.1054688,-0.10546875 -0.234375,-0.10546875 -0.609375,0 -0.609375,-0.0703125 -0.6445313,-0.36328125 L 5.6939687,-6.8917031 c -0.011719,-0.1992188 -0.011719,-0.2460938 -0.1875,-0.2460938 -0.1640625,0 -0.1992187,0.070312 -0.2578125,0.1757813 z m 1.1953125,-1.4648438 1.96875,-3.28125 0.3164063,3.28125 z m 0,0"
         style="fill:#000000;fill-opacity:1;fill-rule:nonzero;stroke:none" />
      <path
         id="path6"
         d="m 13.680297,2.2489219 c 0.04687,0.140625 0.09375,0.2460937 0.222656,0.2460937 0.117188,0 0.199219,-0.09375 0.199219,-0.1992187 0,-0.023437 0,-0.046875 -0.04687,-0.1640625 l -3.410156,-9.3632813 c -0.05859,-0.1757812 -0.08203,-0.2460937 -0.210938,-0.2460937 -0.117187,0 -0.199219,0.09375 -0.199219,0.1992187 0,0.023437 0,0.046875 0.04687,0.1640625 z m 0,0"
         style="fill:#000000;fill-opacity:1;fill-rule:nonzero;stroke:none" />
      <path
         id="path7"
         d="m 18.470336,-0.77451562 c -0.09375,0.38671875 -0.117188,0.46875 -0.902344,0.46875 -0.175781,0 -0.269531,0 -0.269531,0.19921875 0,0.10546875 0.08203,0.10546875 0.269531,0.10546875 h 3.550781 c 1.570313,0 2.753907,-1.17187498 2.753907,-2.15624998 0,-0.7148438 -0.585938,-1.2890625 -1.546875,-1.3945313 1.03125,-0.1992187 2.085937,-0.9375 2.085937,-1.875 0,-0.7382812 -0.65625,-1.3828125 -1.851562,-1.3828125 h -3.351563 c -0.1875,0 -0.292969,0 -0.292969,0.1992188 0,0.1171875 0.09375,0.1171875 0.28125,0.1171875 0.02344,0 0.210938,0 0.375,0.011719 0.1875,0.023437 0.269532,0.035156 0.269532,0.1640625 0,0.035156 -0.01172,0.070312 -0.03516,0.1875 z m 1.5,-2.87109378 0.621094,-2.4726562 c 0.09375,-0.3515625 0.105468,-0.375 0.539062,-0.375 h 1.289063 c 0.867187,0 1.078125,0.5859375 1.078125,1.0195312 0,0.8789063 -0.855469,1.828125 -2.074219,1.828125 z m -0.445313,3.33984378 c -0.140625,0 -0.152343,0 -0.222656,-0.0117188 -0.09375,-0.0117188 -0.128906,-0.0234375 -0.128906,-0.10546875 0,-0.0234375 0,-0.046875 0.05859,-0.22265625 l 0.679687,-2.77734368 h 1.886719 c 0.960937,0 1.148437,0.7265625 1.148437,1.1601562 0,0.984375 -0.890625,1.95703123 -2.0625,1.95703123 z m 0,0"
         style="fill:#000000;fill-opacity:1;fill-rule:nonzero;stroke:none" />
    </g>
    <path
       id="path8"
       d="m 1.5923281,-0.77345312 c -0.09375,0.38671875 -0.1171875,0.46875 -0.90234373,0.46875 -0.17578125,0 -0.26953125,0 -0.26953125,0.19921875 0,0.105468745 0.0820313,0.105468745 0.26953125,0.105468745 H 4.2407656 c 1.5703125,0 2.7539063,-1.171874975 2.7539063,-2.156249975 0,-0.7148438 -0.5859375,-1.2890625 -1.546875,-1.3945313 1.03125,-0.1992187 2.0859375,-0.9375 2.0859375,-1.875 0,-0.7382812 -0.65625,-1.3828125 -1.8515625,-1.3828125 H 2.3306094 c -0.1875,0 -0.2929688,0 -0.2929688,0.1992188 0,0.1171875 0.09375,0.1171875 0.28125,0.1171875 0.023437,0 0.2109375,0 0.375,0.011719 0.1875,0.023437 0.2695313,0.035156 0.2695313,0.1640625 0,0.035156 -0.011719,0.070312 -0.035156,0.1875 z m 1.5,-2.87109378 0.6210938,-2.4726562 c 0.09375,-0.3515625 0.1054687,-0.375 0.5390625,-0.375 h 1.2890625 c 0.8671875,0 1.078125,0.5859375 1.078125,1.0195312 0,0.8789063 -0.8554688,1.828125 -2.0742188,1.828125 z m -0.4453125,3.33984378 c -0.140625,0 -0.1523437,0 -0.2226562,-0.0117188 -0.09375,-0.0117188 -0.1289063,-0.0234375 -0.1289063,-0.10546875 0,-0.0234375 0,-0.046875 0.058594,-0.22265625 L 3.0337344,-3.4218906 h 1.8867187 c 0.9609375,0 1.1484375,0.7265625 1.1484375,1.1601562 0,0.984375 -0.890625,1.95703128 -2.0625,1.95703128 z m 0,0"
       style="fill:#000000;fill-opacity:1;fill-rule:nonzero;stroke:none"
       aria-label="B"
       transform="matrix(1.3333333,0,0,1.3333333,98.525333,70.945333)" />
  </g>
</svg>
